name rise49.5252peak65.1548fall88.8305.mot
datacolumns 19
datarows 27
range 2.27498900000000 2.31832100000000
endheader
time	ground_force1_vx	ground_force1_vy	ground_force1_vz	ground_force1_px	ground_force1_py	ground_force1_pz	ground_force2_vx	ground_force2_vy	ground_force2_vz	ground_force2_px	ground_force2_py	ground_force2_pz	ground_torque1_x	ground_torque1_y	ground_torque1_z	ground_torque2_x	ground_torque2_y	ground_torque2_z	
2.27498900000000	41.91805100000000	733.14178500000003	57.62204600000000	0.35027000000000	0.00000000000000	0.15120200000000	3.21452800000000	16.56010900000000	2.15930500000000	0.00000000000000	0.00000000000000	0.00000000000000	0.00000000000000	26.65633800000000	0.00000000000000	0.00000000000000	0.36503500000000	0.00000000000000	
2.27665000000000	41.01930000000000	736.08403499999997	57.80353200000000	0.34905200000000	0.00000000000000	0.15126000000000	2.60117500000000	11.60937900000000	1.59415700000000	0.00000000000000	0.00000000000000	0.00000000000000	0.00000000000000	26.87934500000000	0.00000000000000	0.00000000000000	0.28645700000000	0.00000000000000	
2.27832300000000	40.11976300000000	738.91035199999999	57.98897800000000	0.34785800000000	0.00000000000000	0.15131800000000	1.98251600000000	7.34908200000000	1.08553200000000	0.00000000000000	0.00000000000000	0.00000000000000	0.00000000000000	27.10677200000000	0.00000000000000	0.00000000000000	0.21077800000000	0.00000000000000	
2.27998300000000	39.22084400000000	741.61920099999998	58.17827700000000	0.34668900000000	0.00000000000000	0.15137700000000	1.39157300000000	3.82342300000000	0.64559700000000	0.00000000000000	0.00000000000000	0.00000000000000	0.00000000000000	27.33825900000000	0.00000000000000	0.00000000000000	0.14116500000000	0.00000000000000	
2.28165100000000	38.32388800000000	744.20917099999997	58.37122600000000	0.34554400000000	0.00000000000000	0.15143700000000	0.00000000000000	0.00000000000000	0.00000000000000	0.00000000000000	0.00000000000000	0.00000000000000	0.00000000000000	27.57338800000000	0.00000000000000	0.00000000000000	0.00000000000000	0.00000000000000	
2.28332200000000	37.43018200000000	746.67898400000001	58.56752900000000	0.34442200000000	0.00000000000000	0.15149700000000	0.00000000000000	0.00000000000000	0.00000000000000	0.00000000000000	0.00000000000000	0.00000000000000	0.00000000000000	27.81168400000000	0.00000000000000	0.00000000000000	0.00000000000000	0.00000000000000	
2.28498900000000	36.54095800000000	749.02750600000002	58.76680300000000	0.34332300000000	0.00000000000000	0.15155700000000	0.00000000000000	0.00000000000000	0.00000000000000	0.00000000000000	0.00000000000000	0.00000000000000	0.00000000000000	28.05261600000000	0.00000000000000	0.00000000000000	0.00000000000000	0.00000000000000	
2.28665600000000	35.65738600000000	751.25375699999995	58.96858000000000	0.34224700000000	0.00000000000000	0.15161800000000	0.00000000000000	0.00000000000000	0.00000000000000	0.00000000000000	0.00000000000000	0.00000000000000	0.00000000000000	28.29560500000000	0.00000000000000	0.00000000000000	0.00000000000000	0.00000000000000	
2.28832000000000	34.78058100000000	753.35692400000005	59.17231400000000	0.34119300000000	0.00000000000000	0.15167900000000	0.00000000000000	0.00000000000000	0.00000000000000	0.00000000000000	0.00000000000000	0.00000000000000	0.00000000000000	28.54002400000000	0.00000000000000	0.00000000000000	0.00000000000000	0.00000000000000	
2.28998500000000	33.91159700000000	755.33636600000000	59.37739000000000	0.34016000000000	0.00000000000000	0.15174000000000	0.00000000000000	0.00000000000000	0.00000000000000	0.00000000000000	0.00000000000000	0.00000000000000	0.00000000000000	28.78520500000000	0.00000000000000	0.00000000000000	0.00000000000000	0.00000000000000	
2.29165500000000	33.05143100000000	757.19162300000005	59.58312200000000	0.33914700000000	0.00000000000000	0.15180200000000	0.00000000000000	0.00000000000000	0.00000000000000	0.00000000000000	0.00000000000000	0.00000000000000	0.00000000000000	29.03044300000000	0.00000000000000	0.00000000000000	0.00000000000000	0.00000000000000	
2.29332000000000	32.20102400000000	758.92242599999997	59.78876800000000	0.33815400000000	0.00000000000000	0.15186300000000	0.00000000000000	0.00000000000000	0.00000000000000	0.00000000000000	0.00000000000000	0.00000000000000	0.00000000000000	29.27500000000000	0.00000000000000	0.00000000000000	0.00000000000000	0.00000000000000	
2.29498200000000	31.36125800000000	760.52869799999996	59.99353300000000	0.33717900000000	0.00000000000000	0.15192400000000	0.00000000000000	0.00000000000000	0.00000000000000	0.00000000000000	0.00000000000000	0.00000000000000	0.00000000000000	29.51810800000000	0.00000000000000	0.00000000000000	0.00000000000000	0.00000000000000	
2.29665600000000	30.53296100000000	762.01056800000003	60.19657700000000	0.33622100000000	0.00000000000000	0.15198600000000	0.00000000000000	0.00000000000000	0.00000000000000	0.00000000000000	0.00000000000000	0.00000000000000	0.00000000000000	29.75897900000000	0.00000000000000	0.00000000000000	0.00000000000000	0.00000000000000	
2.29832200000000	29.71690600000000	763.36836700000003	60.39702100000000	0.33527900000000	0.00000000000000	0.15204600000000	0.00000000000000	0.00000000000000	0.00000000000000	0.00000000000000	0.00000000000000	0.00000000000000	0.00000000000000	29.99680500000000	0.00000000000000	0.00000000000000	0.00000000000000	0.00000000000000	
2.29998900000000	28.91381000000000	764.60263899999995	60.59395600000000	0.33435100000000	0.00000000000000	0.15210700000000	0.00000000000000	0.00000000000000	0.00000000000000	0.00000000000000	0.00000000000000	0.00000000000000	0.00000000000000	30.23076400000000	0.00000000000000	0.00000000000000	0.00000000000000	0.00000000000000	
2.30165000000000	28.12434100000000	765.71414000000004	60.78644900000000	0.33343800000000	0.00000000000000	0.15216700000000	0.00000000000000	0.00000000000000	0.00000000000000	0.00000000000000	0.00000000000000	0.00000000000000	0.00000000000000	30.46002800000000	0.00000000000000	0.00000000000000	0.00000000000000	0.00000000000000	
2.30332300000000	27.34911500000000	766.70383800000002	60.97355400000000	0.33253600000000	0.00000000000000	0.15222600000000	0.00000000000000	0.00000000000000	0.00000000000000	0.00000000000000	0.00000000000000	0.00000000000000	0.00000000000000	30.68376500000000	0.00000000000000	0.00000000000000	0.00000000000000	0.00000000000000	
2.30498900000000	26.58869600000000	767.57292099999995	61.15431300000000	0.33164600000000	0.00000000000000	0.15228400000000	0.00000000000000	0.00000000000000	0.00000000000000	0.00000000000000	0.00000000000000	0.00000000000000	0.00000000000000	30.90114500000000	0.00000000000000	0.00000000000000	0.00000000000000	0.00000000000000	
2.30665200000000	25.84360400000000	768.32279000000005	61.32777300000000	0.33076500000000	0.00000000000000	0.15234200000000	0.00000000000000	0.00000000000000	0.00000000000000	0.00000000000000	0.00000000000000	0.00000000000000	0.00000000000000	31.11134400000000	0.00000000000000	0.00000000000000	0.00000000000000	0.00000000000000	
2.30832000000000	25.11431100000000	768.95506100000000	61.49298200000000	0.32989300000000	0.00000000000000	0.15239800000000	0.00000000000000	0.00000000000000	0.00000000000000	0.00000000000000	0.00000000000000	0.00000000000000	0.00000000000000	31.31355100000000	0.00000000000000	0.00000000000000	0.00000000000000	0.00000000000000	
2.30998700000000	24.40124200000000	769.47156399999994	61.64900500000000	0.32902700000000	0.00000000000000	0.15245400000000	0.00000000000000	0.00000000000000	0.00000000000000	0.00000000000000	0.00000000000000	0.00000000000000	0.00000000000000	31.50697200000000	0.00000000000000	0.00000000000000	0.00000000000000	0.00000000000000	
2.31165600000000	23.70478300000000	769.87433799999997	61.79492900000000	0.32816700000000	0.00000000000000	0.15250800000000	0.00000000000000	0.00000000000000	0.00000000000000	0.00000000000000	0.00000000000000	0.00000000000000	0.00000000000000	31.69083300000000	0.00000000000000	0.00000000000000	0.00000000000000	0.00000000000000	
2.31331700000000	23.02527600000000	770.16562599999997	61.92986600000000	0.32731100000000	0.00000000000000	0.15256100000000	0.00000000000000	0.00000000000000	0.00000000000000	0.00000000000000	0.00000000000000	0.00000000000000	0.00000000000000	31.86438700000000	0.00000000000000	0.00000000000000	0.00000000000000	0.00000000000000	
2.31498800000000	22.36302400000000	770.34787400000005	62.05296300000000	0.32645800000000	0.00000000000000	0.15261200000000	0.00000000000000	0.00000000000000	0.00000000000000	0.00000000000000	0.00000000000000	0.00000000000000	0.00000000000000	32.02691600000000	0.00000000000000	0.00000000000000	0.00000000000000	0.00000000000000	
2.31665000000000	21.71829300000000	770.42372399999999	62.16340700000000	0.32560600000000	0.00000000000000	0.15266200000000	0.00000000000000	0.00000000000000	0.00000000000000	0.00000000000000	0.00000000000000	0.00000000000000	0.00000000000000	32.17773700000000	0.00000000000000	0.00000000000000	0.00000000000000	0.00000000000000	
2.31832100000000	21.09131200000000	770.39600399999995	62.26043100000000	0.32475300000000	0.00000000000000	0.15271000000000	0.00000000000000	0.00000000000000	0.00000000000000	0.00000000000000	0.00000000000000	0.00000000000000	0.00000000000000	32.31620400000000	0.00000000000000	0.00000000000000	0.00000000000000	0.00000000000000	
